<?xml version="1.0" encoding="UTF-8" standalone="no"?>
<!DOCTYPE svg PUBLIC "-//W3C//DTD SVG 20010904//EN"
              "http://www.w3.org/TR/2001/REC-SVG-20010904/DTD/svg10.dtd">

<svg xmlns="http://www.w3.org/2000/svg"
     width="13.8889in" height="13.8889in"
     viewBox="0 0 1000 1000">
  <path id="Выделение"
        fill="none" stroke="black" stroke-width="1"
        d="M 465.58,356.62
           C 431.53,334.64 367.22,311.95 321.41,304.37
             319.66,321.23 320.85,326.80 319.98,342.96
             385.54,348.90 409.17,365.58 458.83,420.29
             508.50,475.00 483.82,613.53 434.16,631.02
             384.50,648.50 325.10,631.28 284.20,623.67
             288.17,563.74 299.60,312.81 300.18,302.21
             254.45,298.05 213.33,300.67 168.40,313.73
             123.47,326.80 83.75,356.62 38.72,388.14
             45.03,407.05 54.49,429.68 68.00,463.00
             68.00,463.00 76.33,462.00 76.33,462.00
             125.20,388.55 157.41,337.69 237.74,336.80
             233.24,407.95 212.53,615.97 212.53,615.97
             212.53,615.97 149.35,633.49 114.00,647.00
             114.00,647.00 117.97,655.60 117.97,655.60
             234.14,662.80 345.81,681.71 405.24,690.81
             418.85,693.34 435.40,703.72 453.25,717.41
             472.67,664.00 544.97,568.26 544.35,568.26
             543.73,568.26 555.26,572.50 555.26,572.50
             555.26,572.50 484.67,696.00 483.89,740.38
             514.31,767.33 547.28,801.75 574.55,822.20
             574.55,822.20 582.00,818.00 582.00,818.00
             540.38,688.85 557.63,675.15 604.27,610.57
             634.60,629.03 670.67,644.00 701.33,678.00
             723.33,635.33 749.25,612.37 776.91,584.20
             846.62,607.60 825.85,722.00 813.33,816.00
             813.33,816.00 819.50,820.40 819.50,820.40
             860.02,781.67 895.14,744.75 927.77,712.36
             860.64,540.11 855.74,438.27 845.09,318.18
             845.09,318.18 838.25,317.25 838.25,317.25
             822.94,342.47 809.20,377.05 787.08,414.25
             764.96,451.45 731.81,479.20 697.16,482.26
             662.51,485.32 653.68,464.79 625.88,408.85
             599.55,355.87 545.67,195.37 526.50,142.50
             526.50,142.50 518.71,141.39 518.71,141.39
             511.61,173.03 487.81,275.69 474.67,328.00
             508.00,344.00 538.00,412.67 538.00,412.67
             538.00,412.67 526.82,417.85 526.82,417.85
             526.82,417.85 499.63,378.59 465.58,356.62 Z" />
</svg>
